<?xml version="1.0" encoding="utf-8"?>
<!-- Generator: Adobe Illustrator 24.2.3, SVG Export Plug-In . SVG Version: 6.00 Build 0)  -->
<svg version="1.1" id="Layer_1" xmlns="http://www.w3.org/2000/svg" xmlns:xlink="http://www.w3.org/1999/xlink" x="0px" y="0px"
	 width="399.3px" height="428.8px" viewBox="0 0 399.3 428.8" style="enable-background:new 0 0 399.3 428.8;" xml:space="preserve"
	>
<style type="text/css">
	.st0{fill:#0B0A0A;}
	.st1{fill:#FFFFFF;}
	.st2{fill:#EAB0C7;}
</style>
<path class="st0" d="M221.7,415.9c-1.5,0-3,0-4.4-0.1c-4.6-1.1-9.2-1.9-13.6-3.6c-10.5-4.2-19.9-10.2-28.5-17.4
	c-13.2-11.1-24.9-23.6-35.7-36.9c-6.1-7.6-12.2-15.1-17.9-22.9c-3.9-5.3-7.3-10.9-10.7-16.5c-4.6-7.4-9.2-14.8-13.3-22.5
	c-7.7-14.4-15.7-28.8-21.7-44.1c-0.3-0.8-0.5-1.4-1.6-1.7c-12.2-2.9-22.8-8.7-32.3-16.8c-13.2-11.1-23.7-24.2-31.5-39.5
	c-3.5-6.9-5.3-14.1-3.7-22c2.1-10.4,10.5-19.6,22.8-21.6c3.3-0.5,6.5,0.5,9.6,1.5c1.3,0.4,2.7,0.8,3.9,1.4c1,0.5,1.4,0.4,1.1-0.8
	c-0.5-2.7-1-5.4-1.3-8.1c-0.5-4.2-0.9-8.4-1.1-12.6c-0.3-5.9-0.5-11.8-0.4-17.6c0.1-8.6,1.3-17.1,3.4-25.4c2.5-10,6-19.6,11-28.6
	c3.6-6.6,7.5-12.9,12.8-18.3c4.8-4.9,10-9.1,15.9-12.6c5.7-3.4,11.6-6.8,17.6-9.6c8.9-4.1,18.5-6.2,28.2-7.6
	c7.8-1.1,15.5-0.8,23.3,0.2c20,2.4,37.9,10.1,54.1,21.9c15,11,26.9,24.6,35.3,41.2c2,3.9,3.4,8.1,5,12.2c0.3,0.8,0.6,1.6,0.9,2.3
	c0.1,0.3,0.5,0.6,0.7,0.9c0.2-0.3,0.4-0.6,0.5-0.8c2-3.9,4.3-7.5,7.6-10.4c3.8-3.3,8.1-5.4,13.4-5.8c9.3-0.7,16.7,3.1,23.5,8.8
	c5.6,4.7,8.8,11.1,11.9,17.6c4,8.4,5.7,17.2,5.9,26.4c0.2,13-1.3,25.7-5.5,38c-2.6,7.4-6.5,14.1-11,20.4c-0.9,1.3-0.7,1.8,0.5,2.5
	c11.4,7.1,23.8,11.1,37.4,11.1c9.9,0,19.9-0.2,29.8,0c3.6,0.1,7.3,0.7,10.8,1.6c9.2,2.3,15.3,8.4,18.8,16.9c2.5,6,1.8,12.2-0.3,18.3
	c-2.5,7.2-7.7,12-14.1,15.7c-4.7,2.7-9.9,3.4-15,4.5c-2.1,0.5-4.3,0.8-6.4,1.4c-3.4,0.9-6.1,3.5-6.2,6.4c0,3.4,0.8,6.5,3.8,8.6
	c3.8,2.7,7.9,4.6,12.2,6.4c2.2,0.9,4.5,1.9,6.6,3.1c5.9,3.3,7.9,8.6,5.5,15.7c-2.1,6.3-6,11.6-11.7,15.4c-5.8,3.9-12,6.7-19,8
	c-5.3,1-10.7,0.9-16.1,0.1c-6.4-0.9-12.4-2.9-18.6-4.6c-2.6-0.7-5.1-0.7-7.6,0.1c-4.3,1.4-5,3.8-4.4,8c0.3,2.1,1.5,3.9,3.1,5.6
	c3.8,3.9,7.4,8,11,12.1c6.9,7.7,5.5,20.4-2.5,27.8c-5.2,4.8-11.4,7-18.3,8.1c-11.3,1.7-21.7-1-31.8-5.9c-2.9-1.4-6-2.7-8.9-4.2
	c-5.6-2.9-8,1-8.6,5.1c-0.3,2.6-0.3,5.2-0.4,7.8c-0.2,2.7-0.3,5.5-0.6,8.2c-0.6,6.6-2.8,12.7-6.4,18.2c-3.1,4.8-7.9,7.4-13.4,8.7
	C224,415.5,222.8,415.7,221.7,415.9z"/>
<g>
	<path class="st1" d="M54.7,194.6c-2.8-8.1-5.4-16.3-6.7-24.8c-0.1-0.9-1-1.8-1.8-2.4c-3-2-6.4-2.7-9.8-3.4c-4.7-1-8.8,0.3-12.1,3.7
		c-4.8,5.1-6.1,11.2-4.2,17.9c1.6,5.6,4.6,10.5,7.8,15.3c3.6,5.4,8.2,10.1,12.6,14.9c4.7,5.1,9.8,9.6,15.6,13.3
		c3.9,2.4,7.9,4.7,12.5,5.8c0.1,0.1,0.3,0.1,0.4,0.2c0-0.2-0.1-0.3-0.1-0.5C64.2,221.3,59.3,208,54.7,194.6z"/>
	<path class="st1" d="M379.9,217.6c-2.8-4-6.7-6.8-11.4-8.2c-4.5-1.4-9.1-1.6-13.7-1.4c-6.4,0.3-12.7,0.7-19.1,1
		c-13.3,0.7-25.9-2.2-37.9-7.7c-3.1-1.4-6.2-3-9.1-4.8c-1.7-1-1.5-1.1-3,0.3c-3.4,3.2-6.8,6.4-10.3,9.5c-1.8,1.6-4.1,2.3-6.6,2.2
		c-3.3-0.1-5.3-2.4-5.3-5.8c0-2.1,1.3-3.5,2.7-4.8c3.3-3,6.8-5.8,9.9-9c3.4-3.5,7-7,9.6-11.1c9.5-15.6,14.9-32.4,14.7-50.9
		c-0.1-10.2-2.4-19.8-7.9-28.5c-3.5-5.6-8.1-9.8-14.6-11.6c-5.7-1.6-10.7-0.7-14.9,3.9c-4.3,4.6-5.4,10.2-5.7,16.1
		c-0.4,7.6-0.4,15.1-0.9,22.7c-0.3,4.1-1.2,8.1-2.1,12.2c-0.4,2.1-2.7,2.8-4.4,1.5c-1.8-1.3-2.5-3.2-2.5-5.3c0-2.2,0.6-4.3,0.5-6.5
		c-0.1-3.3-0.2-6.8-1.1-9.9c-1.7-6.1-3.8-12.2-5.9-18.2c-1.4-4-2.8-7.9-4.5-11.7c-9.7-22-24.1-40-44.6-52.9
		c-14.2-9-29.7-14-46.6-14.6c-12.4-0.5-24.4,1.6-35.8,6.3c-12.7,5.2-23.9,12.7-33,23.1C70.5,60.2,65.5,68,62.1,76.8
		c-2.9,7.4-4.8,15.1-6.1,23c-1.3,7.7-2.2,15.4-2.1,23.2c0.3,4.9,0.5,9.7,0.8,14.6c0.8,11.7,2.5,23.4,5.8,34.7
		c3.8,13,7.7,26.1,12.2,38.8C78,225.9,84,240.5,89.9,255c5.3,13,11.5,25.6,18.3,37.8c6,10.7,12.5,21,19.6,31
		c8.3,11.6,16.3,23.4,25.9,34c6,6.6,12,13.3,18.1,19.8c5.3,5.6,11.3,10.5,17.7,14.8c6.5,4.3,13.3,8.1,21.2,9.6
		c5.2,1,10.3,0.8,15.1-1.6c3.5-1.7,6.3-4.3,6.7-8.3c0.6-4.9,0.6-9.8,0.8-14.7c0.1-2.3,0-4.6,0.2-6.9c0.4-5.1,1.6-10,5.5-13.7
		c0.6-0.6,0.6-1-0.1-1.4c-0.6-0.4-1.1-0.9-1.6-1.3c-8.8-7-17-14.6-24.2-23.2c-5.5-6.6-10.7-13.4-16-20.2c-1.9-2.4-3.7-4.8-5.4-7.2
		c-0.4-0.5-0.5-1.8-0.3-2c0.5-0.4,1.5-0.5,2.2-0.4c0.5,0.1,1.1,0.6,1.5,1c1.1,1.1,2.2,2.1,3.3,3.3c13.1,14.2,27.4,26.9,43.6,37.7
		c14.3,9.5,29.2,17.6,45.8,22.1c6.8,1.9,12.9-0.3,16.7-6.4c2.1-3.3,2.7-6.8,0.6-10.3c-1.8-3.1-3.8-6.2-6.2-8.9
		c-4.3-4.7-7.4-10-8.9-16.3c-2-8.5,2.5-16,10.8-18.4c4.8-1.4,9.6-1.1,14.3,0.2c6.9,1.8,13.9,2.6,20.9,2.7c5.2,0.1,10.4-0.3,15.3-2.2
		c4.2-1.6,8.3-3.4,11.5-6.7c3.8-4,2.9-9.8-1.9-12.2c-3.3-1.7-6.7-3.2-10.2-4.2c-14.2-4.4-27.9-9.9-40.2-18.4
		c-5-3.4-9.7-7.3-14.6-10.9c-0.9-0.7-1.6-1.6-0.8-2.7c0.8-1,1.8-0.8,2.8-0.3c0.7,0.4,1.5,0.8,2.2,1.2c11.3,6.5,22.9,12.1,35.3,16.2
		c3.2,1,3.1,1,3-2.2c-0.1-5.9,1.5-10.9,7-14c5-2.8,10.3-4.9,16-5.9c5.3-1,10.3-3,14.2-6.7c2.2-2,4.1-4.7,5.3-7.4
		C383,226.8,382.9,221.9,379.9,217.6z M68,121.1c-0.4,1-0.6,2-1,3c-0.6,1.5-2.1,2.4-3.4,2.3c-1.3-0.1-2.2-1.2-2.6-2.9
		c0-0.6,0-1.2-0.1-1.6c0.1-2.8,1.1-5.1,2.2-7.4c2.2-4.2,5.3-7.8,9.5-10.1c2.1-1.1,4.3-1.8,6.6-0.7c0.8,0.4,1.5,1,2,1.7
		c0.8,1.1,0.5,2.3-0.6,3.1c-0.4,0.3-0.8,0.5-1.3,0.7C73.4,111.2,70.1,115.6,68,121.1z M106.2,139.1c-4.9,7.1-14.3,10.1-22.4,7.2
		c-6.9-2.4-10.8-8.2-11.1-16.5c-0.1-3.2,0.9-6.3,3-9.1c5.4-7.3,16.5-9.8,24.6-5.7C109.3,119.6,112,130.6,106.2,139.1z M136.5,169.4
		c-5.3,3.2-10.4,0.8-13.5-3.2c-0.8-1-1.4-2.1-1.9-3.3c-2.2-5.4-3.3-11.3-4-17.5c0.2-1.2,0.3-2.8,0.8-4.2c1.2-3.3,3.6-5.5,7.2-5.9
		c4.2-0.4,7.8,0.7,10.3,4.3c1,1.5,1.8,3.2,2.3,4.9c1.2,4.7,2.4,9.5,3.3,14.3C141.9,163.5,140,167.3,136.5,169.4z M168.7,136.9
		c-7.5,2-14.7,1.5-21.4-2.8c-10.4-6.9-13.1-20.5-5.9-30.6c4.6-6.6,11.2-9.5,19.9-9.6c5.1,0.4,10.5,2,15.1,5.8
		c5.3,4.4,8.1,10.2,8.2,16.9C184.7,126.6,177.7,134.5,168.7,136.9z M193.4,104.5c-0.9,0.8-2.1,0.9-2.9,0.2c-1.1-0.9-2.1-2-3-3.2
		c-1.9-2.4-3.6-5-5.7-7.2c-4.7-4.8-10.7-6.4-17.2-6.6c-1.1,0-2.3,0-3.4-0.1c-1.7-0.2-2.6-1.3-2.7-2.7c-0.1-1.3,0.8-2.4,2.3-2.9
		c0.3-0.1,0.7-0.2,1-0.3c1.2-0.2,2.3-0.2,2.9-0.3c13.6,0.3,22.8,6.6,28.8,18.1c0.4,0.7,0.6,1.4,0.8,2.2
		C194.7,102.8,194.2,103.8,193.4,104.5z"/>
	<path class="st1" d="M153.8,104c-4.3,0-7,2.4-7.1,6.3c-0.1,4,2.5,6.8,6.4,6.8c4,0.1,7-2.8,7.1-6.8C160.2,106.6,157.6,104,153.8,104
		z"/>
	<path class="st1" d="M165,114.9c-1.3,0-2.6,1.2-2.6,2.5c-0.1,1.5,0.9,2.6,2.3,2.6c1.3,0.1,2.4-1,2.4-2.5
		C167.1,116.1,166.2,114.9,165,114.9z"/>
	<path class="st1" d="M84.6,120c-3.1,0.1-6.1,3-6,5.9c0.1,2.6,2.2,4.7,4.9,4.7c3.5,0.1,5.8-2.1,5.8-5.4
		C89.3,122.4,87.1,119.9,84.6,120z"/>
	<path class="st1" d="M92.1,128.9c-1,0-1.8,0.8-1.8,1.8s0.8,1.8,1.8,1.8s1.9-0.8,1.8-1.8C93.9,129.7,93.1,128.9,92.1,128.9z"/>
</g>
<g>
	<path class="st2" d="M163.8,157.4c-1.7-0.3-4.6-0.8-7.5-1.3c-0.8-0.2-1.6-0.7-2.4-1.1c-3.6-1.9-3.1-6.1-0.4-8.4
		c3.5-3,7.8-4.3,12.1-5.3c3.1-0.7,6.3-1.2,9.5-1.2c4.1,0,8.2,0.2,11.8,2.5c2.9,1.9,3.3,4.8,0.9,7.3c-2.3,2.5-5.2,3.9-8.4,4.9
		C174.7,156.4,169.9,157.1,163.8,157.4z"/>
	<path class="st2" d="M98.2,150.3c2.1,0.4,4.3,0.6,6.3,1.3c2.9,0.9,3.7,3.8,1.7,6.2c-1.1,1.3-2.6,2.4-4.1,3.2
		c-5.2,2.6-10.8,4.2-16.7,3.9c-1.9-0.1-3.9-0.6-5.6-1.3c-2.7-1.1-3.2-3.9-1.2-6.2c1.9-2.3,4.6-3.5,7.3-4.5
		C89.8,151.5,93.9,150.4,98.2,150.3z"/>
</g>
</svg>
